<mxfile host="Electron" agent="Mozilla/5.0 (X11; Linux x86_64) AppleWebKit/537.36 (KHTML, like Gecko) draw.io/28.2.5 Chrome/138.0.7204.251 Electron/37.6.1 Safari/537.36" version="28.2.5">
  <diagram id="XcasQXTrEG2O8NN1Hvw0" name="Page-1">
    <mxGraphModel dx="983" dy="532" grid="1" gridSize="10" guides="1" tooltips="1" connect="1" arrows="1" fold="1" page="1" pageScale="1" pageWidth="850" pageHeight="1100" math="0" shadow="0">
      <root>
        <mxCell id="0" />
        <mxCell id="1" parent="0" />
        <mxCell id="jjc8_5QiSkV6WP-_XtMk-1" value="AuthService" style="rounded=0;whiteSpace=wrap;html=1;fillColor=#1ba1e2;fontColor=#ffffff;strokeColor=#006EAF;" parent="1" vertex="1">
          <mxGeometry x="300" y="220" width="160" height="60" as="geometry" />
        </mxCell>
        <mxCell id="jjc8_5QiSkV6WP-_XtMk-6" value="Login" style="rounded=0;whiteSpace=wrap;html=1;fillColor=#008a00;fontColor=#ffffff;strokeColor=#005700;" parent="1" vertex="1">
          <mxGeometry x="300" y="50" width="160" height="60" as="geometry" />
        </mxCell>
        <mxCell id="jjc8_5QiSkV6WP-_XtMk-13" value="" style="endArrow=diamondThin;endFill=1;endSize=24;html=1;rounded=0;entryX=0.5;entryY=0;entryDx=0;entryDy=0;edgeStyle=orthogonalEdgeStyle;exitX=0.5;exitY=1;exitDx=0;exitDy=0;" parent="1" source="jjc8_5QiSkV6WP-_XtMk-6" target="jjc8_5QiSkV6WP-_XtMk-1" edge="1">
          <mxGeometry width="160" relative="1" as="geometry">
            <mxPoint x="420" as="sourcePoint" />
            <mxPoint x="300" y="200" as="targetPoint" />
          </mxGeometry>
        </mxCell>
        <mxCell id="jjc8_5QiSkV6WP-_XtMk-16" value="AuthController" style="rounded=0;whiteSpace=wrap;html=1;fillColor=#1ba1e2;fontColor=#ffffff;strokeColor=#006EAF;" parent="1" vertex="1">
          <mxGeometry x="300" y="390" width="160" height="60" as="geometry" />
        </mxCell>
        <mxCell id="jjc8_5QiSkV6WP-_XtMk-18" value="Login" style="rounded=0;whiteSpace=wrap;html=1;fillColor=#008a00;fontColor=#ffffff;strokeColor=#005700;" parent="1" vertex="1">
          <mxGeometry x="300" y="530" width="160" height="60" as="geometry" />
        </mxCell>
        <mxCell id="jjc8_5QiSkV6WP-_XtMk-23" value="" style="endArrow=diamondThin;endFill=1;endSize=24;html=1;rounded=0;entryX=0.5;entryY=1;entryDx=0;entryDy=0;exitX=0.5;exitY=0;exitDx=0;exitDy=0;edgeStyle=orthogonalEdgeStyle;" parent="1" source="jjc8_5QiSkV6WP-_XtMk-18" target="jjc8_5QiSkV6WP-_XtMk-16" edge="1">
          <mxGeometry width="160" relative="1" as="geometry">
            <mxPoint x="365" y="510" as="sourcePoint" />
            <mxPoint x="525" y="510" as="targetPoint" />
          </mxGeometry>
        </mxCell>
        <mxCell id="uoYbiNjuW1K5Y7fowQ-2-4" value="" style="endArrow=diamondThin;endFill=0;endSize=24;html=1;rounded=0;entryX=0.5;entryY=0;entryDx=0;entryDy=0;exitX=0.5;exitY=1;exitDx=0;exitDy=0;" parent="1" source="jjc8_5QiSkV6WP-_XtMk-1" target="jjc8_5QiSkV6WP-_XtMk-16" edge="1">
          <mxGeometry width="160" relative="1" as="geometry">
            <mxPoint x="350" y="310" as="sourcePoint" />
            <mxPoint x="510" y="310" as="targetPoint" />
          </mxGeometry>
        </mxCell>
      </root>
    </mxGraphModel>
  </diagram>
</mxfile>
